<svg width="220" height="116" viewBox="0 0 220 116" fill="none" xmlns="http://www.w3.org/2000/svg">
<path d="M48.0147 115.155C23.1337 115.155 -0.471329 93.4635 0.0071522 63.4787C0.645127 33.3344 25.2072 14.3546 48.1742 14.3546C73.0553 14.3546 96.9793 36.3648 96.5008 66.0306C96.0223 95.2179 71.9388 115.155 48.0147 115.155ZM18.5084 29.985C-2.06626 60.7673 24.7287 105.585 56.6274 105.585C63.9641 105.585 71.6198 103.193 78.9565 97.6103C100.169 65.0736 69.8654 22.3293 39.2426 22.3293C32.2249 22.3293 25.0477 24.7217 18.5084 29.985Z" fill="#525460"/>
<path d="M107.208 45.7749V44.0205H121.562L127.942 51.3572L128.421 66.0306C131.451 59.0129 138.628 43.223 153.461 43.223C164.307 43.223 174.993 50.5597 174.993 68.104V104.628C174.993 109.732 177.545 112.443 182.808 112.603V114.517H160.798V68.5825C160.798 54.866 156.97 49.6027 149.474 49.6027C137.99 49.6027 131.451 65.3926 129.218 71.6129V105.426L137.831 114.517H107.208V112.603C107.208 112.603 115.023 112.284 115.023 104.469V54.2281C115.023 48.9648 112.471 46.0939 107.208 45.7749Z" fill="#525460"/>
<path d="M189.856 45.9344V44.0205H212.025V104.469C212.025 109.413 214.737 112.124 220 112.603V114.517H197.83V54.0686C197.83 49.1243 195.119 46.4129 189.856 45.9344ZM203.732 31.1015L201.18 28.5496L199.904 27.2736V14.5141L201.18 13.2382L203.732 10.6863L213.78 20.8939L203.732 31.1015Z" fill="#525460"/>
<path d="M193.595 2.86606L190.774 0L190.058 0.716516L189.699 1.07477V4.65735L190.058 5.01561L190.774 5.73213L193.595 2.86606Z" fill="#525460"/>
<path d="M101.606 32.7848C96.6879 32.7848 92.6562 31.1456 88.9347 27.8228L91.1056 25.2532C94.3398 28.1772 97.441 29.6392 101.738 29.6392C105.903 29.6392 108.65 27.424 108.65 24.3671V24.2785C108.65 21.3987 107.099 19.7595 100.587 18.3861C93.4537 16.8354 90.1752 14.5316 90.1752 9.43671V9.3481C90.1752 4.47468 94.4727 0.886075 100.365 0.886075C104.884 0.886075 108.118 2.17088 111.264 4.6962L109.226 7.39873C106.346 5.05063 103.466 4.03164 100.276 4.03164C96.2448 4.03164 93.6752 6.24683 93.6752 9.03797V9.12658C93.6752 12.0506 95.2701 13.6899 102.093 15.1519C109.004 16.6582 112.194 19.1835 112.194 23.924V24.0127C112.194 29.3291 107.764 32.7848 101.606 32.7848Z" fill="#525460"/>
<path d="M125.298 32.7405C121.621 32.7405 118.829 30.924 118.829 26.2722V12.4494H115.639V9.43671H118.829V2.52532H122.241V9.43671H129.507V12.4494H122.241V25.8291C122.241 28.6203 123.791 29.6392 126.095 29.6392C127.247 29.6392 128.222 29.4177 129.418 28.8418V31.7658C128.222 32.3861 126.937 32.7405 125.298 32.7405Z" fill="#525460"/>
<path d="M143.077 32.8291C137.539 32.8291 134.305 29.1076 134.305 23.6582V9.43671H137.716V22.8165C137.716 27.0696 140.02 29.7278 144.051 29.7278C147.95 29.7278 150.918 26.8481 150.918 22.5506V9.43671H154.286V32.3418H150.918V28.3544C149.368 30.8354 147.02 32.8291 143.077 32.8291Z" fill="#525460"/>
<path d="M170.687 32.8291C165.194 32.8291 159.744 28.4873 159.744 20.9557V20.8671C159.744 13.3797 165.194 8.94937 170.687 8.94937C174.94 8.94937 177.687 11.2532 179.459 13.8228V0H182.871V32.3418H179.459V27.7342C177.599 30.481 174.896 32.8291 170.687 32.8291ZM171.308 29.7722C175.561 29.7722 179.592 26.1835 179.592 20.9114V20.8228C179.592 15.5506 175.561 12.0063 171.308 12.0063C166.877 12.0063 163.244 15.2848 163.244 20.8228V20.9114C163.244 26.3165 166.966 29.7722 171.308 29.7722Z" fill="#525460"/>
<path d="M189.918 32.3418V9.43671H193.329V32.3418H189.918Z" fill="#525460"/>
</svg>
