<svg preserveAspectRatio="none" width="100%" height="100%" overflow="visible" style="display: block;" viewBox="0 0 224.895 40" fill="none" xmlns="http://www.w3.org/2000/svg">
<g id="hugeicon-logo 1">
<path id="Vector" fill-rule="evenodd" clip-rule="evenodd" d="M21.0707 3.98187C27.3247 3.98187 32.3413 8.96319 32.3413 15.0428C32.3413 16.1145 33.2101 16.9833 34.2817 16.9833C35.3533 16.9833 36.2222 16.1145 36.2222 15.0428C36.2222 6.76159 29.4093 0.101071 21.0707 0.101071C12.7321 0.101071 5.91918 6.76159 5.91918 15.0428C5.91918 16.1145 6.78794 16.9833 7.8596 16.9833C8.93127 16.9833 9.8 16.1145 9.8 15.0428C9.8 8.96319 14.8167 3.98187 21.0707 3.98187Z" fill="var(--fill-0, #7CCE24)"/>
<path id="Vector_2" d="M5.1975 24.9543L4.56891 20.0054C4.3189 18.037 4.19387 17.0528 4.75401 16.417C5.31412 15.7813 6.30623 15.7812 8.29045 15.7812H33.7457C35.7298 15.7812 36.7219 15.7813 37.2822 16.417C37.8422 17.0528 37.7172 18.037 37.4671 20.0054L36.8386 24.9543C36.0453 31.2 35.6486 34.3228 33.5225 36.1961C31.3963 38.0694 28.2484 38.0694 21.9524 38.0694H20.0837C13.7878 38.0694 10.6399 38.0694 8.51367 36.1961C6.38746 34.3228 5.99082 31.2 5.1975 24.9543Z" fill="var(--fill-0, #1C2D09)"/>
<path id="Vector_3" fill-rule="evenodd" clip-rule="evenodd" d="M33.8357 14.3745C33.8058 14.3745 33.7753 14.3745 33.7451 14.3745H8.19916C7.28523 14.3744 6.45684 14.3743 5.79203 14.4676C5.06562 14.5696 4.29304 14.8115 3.69788 15.4871C3.10269 16.1626 2.96006 16.9595 2.95041 17.693C2.9416 18.3643 3.04607 19.186 3.16132 20.0927L3.81371 25.2289C4.19986 28.2691 4.50663 30.6848 4.99315 32.567C5.4948 34.508 6.22814 36.0579 7.58311 37.2518C8.9381 38.4453 10.5682 38.9776 12.5569 39.2308C14.4855 39.4761 16.9203 39.4761 19.9851 39.4761H22.0499C25.1147 39.4761 27.5495 39.4761 29.4782 39.2308C31.4668 38.9776 33.097 38.4453 34.4519 37.2518C35.8069 36.0579 36.5401 34.508 37.0419 32.567C37.5283 30.6848 37.8352 28.2691 38.2212 25.2289L38.8623 20.1827C38.8659 20.1526 38.8698 20.1226 38.8738 20.0927C38.989 19.186 39.0933 18.3643 39.0847 17.693C39.0749 16.9595 38.9322 16.1626 38.337 15.4871C37.742 14.8115 36.9694 14.5696 36.243 14.4676C35.5781 14.3743 34.7498 14.3744 33.8357 14.3745ZM36.2256 17.3473C36.222 17.3452 36.215 17.3415 36.2041 17.3367C36.1594 17.3169 36.0575 17.2827 35.8517 17.2539C35.4063 17.1913 34.7795 17.1881 33.7451 17.1881H8.2899C7.2555 17.1881 6.62862 17.1913 6.18319 17.2539C5.97746 17.2827 5.87572 17.3169 5.8308 17.3367C5.81983 17.3415 5.81304 17.3452 5.80937 17.3473C5.80772 17.3512 5.80495 17.3584 5.80154 17.3699C5.78755 17.417 5.76649 17.5222 5.76375 17.73C5.75785 18.1797 5.8336 18.802 5.96392 19.8281L6.59251 24.7771C6.59625 24.8066 6.6 24.836 6.60372 24.8654C6.99922 27.9785 7.28479 30.1899 7.7172 31.8629C8.14375 33.5133 8.67183 34.461 9.44305 35.1407C10.2143 35.8201 11.2212 36.2243 12.9121 36.4397C14.6425 36.6599 16.8982 36.6627 20.0831 36.6627H21.9518C25.1368 36.6627 27.3925 36.6599 29.123 36.4397C30.8136 36.2243 31.8206 35.8201 32.5918 35.1407C33.3633 34.461 33.8911 33.5133 34.3177 31.8629C34.7543 30.174 35.041 27.9366 35.4424 24.7771L36.071 19.8281C36.2013 18.802 36.2771 18.1797 36.2712 17.73C36.2684 17.5222 36.2475 17.417 36.2335 17.3699C36.2301 17.3584 36.2273 17.3512 36.2256 17.3473ZM5.80616 17.3493C5.80618 17.3493 5.80613 17.3493 5.80616 17.3493Z" fill="var(--fill-0, #1C2D09)"/>
<path id="Vector_4" fill-rule="evenodd" clip-rule="evenodd" d="M41.8831 15.1348C41.8831 14.0631 41.0146 13.1944 39.9427 13.1944H2.19689C1.12524 13.1944 0.256488 14.0631 0.256488 15.1348C0.256488 16.2064 1.12524 17.0752 2.19689 17.0752H39.9427C41.0146 17.0752 41.8831 16.2064 41.8831 15.1348Z" fill="var(--fill-0, #1C2D09)"/>
<path id="Vector_5" d="M214.468 32.4806C211.57 32.4806 209.206 31.2985 207.604 29.5824C207.223 29.2395 207.032 28.8199 207.032 28.2862C207.032 27.3327 207.833 26.532 208.824 26.532C209.244 26.532 209.663 26.6845 210.082 27.0658C211.265 28.1718 212.675 29.0106 214.468 29.0106C216.107 29.0106 217.48 28.3242 217.48 26.9133C217.48 25.6931 216.374 25.1974 214.849 24.5873L212.942 23.7865C209.93 22.5282 208.061 21.1555 208.061 18.3337C208.061 14.8638 210.96 12.919 214.658 12.919C217.061 12.919 219.158 13.7961 220.607 15.2069C221.026 15.5882 221.217 16.0458 221.217 16.5415C221.217 17.4948 220.454 18.2575 219.539 18.2575C219.12 18.2575 218.776 18.0668 218.281 17.6855C217.289 16.9228 215.993 16.389 214.582 16.389C213.095 16.389 212.027 16.961 212.027 18.1812C212.027 19.2107 212.79 19.7064 214.506 20.3928L216.298 21.1173C219.692 22.5282 221.407 24.0153 221.407 26.7608C221.407 30.5357 218.204 32.4806 214.468 32.4806Z" fill="var(--fill-0, #1C2D09)"/>
<path id="Vector_6" d="M190.371 32.4806C189.227 32.4806 188.35 31.6034 188.35 30.4213V14.9781C188.35 13.7961 189.189 12.919 190.371 12.919C191.477 12.919 192.315 13.7961 192.315 14.9781C193.65 13.6817 195.518 12.919 197.692 12.919C201.963 12.919 204.708 15.817 204.708 20.3547V30.4213C204.708 31.6417 203.831 32.4806 202.725 32.4806C201.543 32.4806 200.704 31.6034 200.704 30.4213V20.8885C200.704 18.2956 199.065 16.5415 196.624 16.5415C194.146 16.5415 192.353 18.3718 192.353 20.8885V30.4213C192.353 31.6417 191.515 32.4806 190.371 32.4806Z" fill="var(--fill-0, #1C2D09)"/>
<path id="Vector_7" d="M175.419 12.919C180.986 12.919 185.371 17.2279 185.371 22.6807C185.371 28.1334 180.986 32.4806 175.419 32.4806C169.89 32.4806 165.543 28.1334 165.543 22.6807C165.543 17.1898 169.89 12.919 175.419 12.919ZM175.457 16.5797C172.101 16.5797 169.623 19.2107 169.623 22.7188C169.623 26.1888 172.101 28.7818 175.419 28.7818C178.736 28.7818 181.253 26.1507 181.253 22.7188C181.253 19.2107 178.736 16.5797 175.457 16.5797Z" fill="var(--fill-0, #1C2D09)"/>
<path id="Vector_8" d="M156.401 32.4806C150.834 32.4806 146.487 28.1718 146.487 22.6807C146.487 17.2279 150.834 12.919 156.401 12.919C159.68 12.919 162.502 14.4824 163.951 16.7322C164.256 17.1898 164.332 17.4948 164.332 17.7999C164.332 18.8294 163.532 19.6302 162.54 19.6302C162.007 19.6302 161.549 19.4777 161.129 18.9819C160.024 17.6092 158.498 16.6178 156.439 16.6178C153.084 16.6178 150.567 19.2108 150.567 22.6807C150.567 26.2269 153.045 28.7818 156.439 28.7818C158.498 28.7818 159.986 27.7903 161.129 26.4557C161.587 25.9219 162.007 25.8075 162.54 25.8075C163.532 25.8075 164.332 26.6082 164.332 27.5997C164.332 27.9428 164.256 28.2478 163.989 28.6291C162.426 30.9553 159.757 32.4806 156.401 32.4806Z" fill="var(--fill-0, #1C2D09)"/>
<path id="Vector_9" d="M141.469 32.4811C140.325 32.4811 139.486 31.6039 139.486 30.4218V14.9787C139.486 13.7966 140.325 12.9196 141.507 12.9196C142.651 12.9196 143.49 13.7966 143.49 14.9787V30.4218C143.49 31.6039 142.613 32.4811 141.469 32.4811ZM141.507 3.76803C142.956 3.76803 144.176 4.91197 144.176 6.36098C144.176 7.80996 142.956 8.9539 141.507 8.9539C140.02 8.9539 138.8 7.80996 138.8 6.36098C138.8 4.91197 140.02 3.76803 141.507 3.76803Z" fill="var(--fill-0, #1C2D09)"/>
<path id="Vector_10" d="M128.235 32.4806C122.439 32.4806 118.168 28.3242 118.168 22.7188C118.168 17.1898 122.363 12.919 127.816 12.919C132.811 12.919 136.51 16.5797 136.51 21.613V21.8037C136.51 23.1764 135.633 24.0153 134.222 24.0153H122.248C122.782 27.0277 125.032 28.9343 128.35 28.9343C129.951 28.9343 131.476 28.4386 132.735 27.4853C133.078 27.2565 133.421 27.104 133.764 27.104C134.717 27.104 135.442 27.8285 135.442 28.7818C135.442 29.468 135.175 29.9256 134.451 30.4596C132.658 31.7941 130.561 32.4806 128.235 32.4806ZM132.506 20.8885C132.43 18.1812 130.523 16.3127 127.701 16.3127C124.994 16.3127 122.935 18.1431 122.325 20.8885H132.506Z" fill="var(--fill-0, #1C2D09)"/>
<path id="Vector_11" d="M105.794 39.3441C102.743 39.3441 99.8455 38.3527 97.672 36.5606C97.1381 36.141 96.9092 35.6453 96.9092 35.1116C96.9092 34.082 97.7101 33.2811 98.7397 33.2811C99.159 33.2811 99.5406 33.3955 99.8835 33.6627C101.79 35.0733 103.544 35.6836 105.565 35.6836C109.111 35.6836 111.171 33.7387 111.171 30.3452V29.0106C109.76 30.6884 107.548 31.6797 104.841 31.6797C99.5786 31.6797 95.7274 27.7522 95.7274 22.2994C95.7274 16.8466 99.5786 12.919 104.841 12.919C107.586 12.919 109.836 13.9486 111.209 15.7026V14.9781C111.209 13.7961 112.086 12.919 113.23 12.919C114.336 12.919 115.174 13.7961 115.174 14.9781V30.1164C115.174 35.8741 111.628 39.3441 105.794 39.3441ZM105.565 28.1718C108.959 28.1718 111.209 25.8075 111.209 22.2612C111.209 18.7913 108.997 16.5034 105.565 16.5034C102.248 16.5034 99.8455 18.9057 99.8455 22.2994C99.8455 25.7312 102.248 28.1718 105.565 28.1718Z" fill="var(--fill-0, #1C2D09)"/>
<path id="Vector_12" d="M84.6666 32.4806C79.8238 32.4806 76.4682 29.0867 76.4682 24.206V14.9781C76.4682 13.7961 77.3071 12.919 78.4512 12.919C79.5949 12.919 80.4338 13.7961 80.4338 14.9781V24.511C80.4338 26.9895 82.188 28.7818 84.6666 28.7818C87.0688 28.7818 88.7846 26.9895 88.7846 24.511V14.9781C88.7846 13.7961 89.6235 12.919 90.8056 12.919C91.9496 12.919 92.7885 13.7961 92.7885 14.9781V24.206C92.7885 29.0867 89.433 32.4806 84.6666 32.4806Z" fill="var(--fill-0, #1C2D09)"/>
<path id="Vector_13" d="M53.6728 32.4808C52.529 32.4808 51.6518 31.6036 51.6518 30.4215V8.5342C51.6518 7.35213 52.4907 6.47509 53.6728 6.47509C54.8549 6.47509 55.6938 7.35213 55.6938 8.5342V16.9231H68.3533V8.5342C68.3533 7.35213 69.1922 6.47509 70.3743 6.47509C71.5564 6.47509 72.3953 7.35213 72.3953 8.5342V30.4215C72.3953 31.6036 71.5184 32.4808 70.3743 32.4808C69.2305 32.4808 68.3533 31.6036 68.3533 30.4215V20.5456H55.6938V30.4215C55.6938 31.6036 54.8168 32.4808 53.6728 32.4808Z" fill="var(--fill-0, #1C2D09)"/>
</g>
</svg>
