<svg preserveAspectRatio="none" width="100%" height="100%" overflow="visible" style="display: block;" viewBox="0 0 296.014 104" fill="none" xmlns="http://www.w3.org/2000/svg">
<g id="Logo">
<g id="Vector">
<path d="M110.179 80.3451C103.442 80.3451 96.3033 78.6937 90.9405 75.3788C85.5777 72.0638 80.5311 67.5588 77.418 61.8517C74.3049 56.1446 72.7483 49.7211 72.7483 42.5933C72.7483 35.4655 74.3049 29.0419 77.418 23.3348C80.5311 17.6277 84.763 13.0985 90.1258 9.73494C95.4886 6.3714 103.454 4.69569 110.179 4.69569C115.687 4.69569 120.612 5.83712 124.954 8.1321C129.295 10.4271 132.785 13.5842 135.436 17.6035C138.087 21.6349 139.571 26.2977 139.875 31.5919V53.4489C139.571 58.646 138.111 63.2846 135.509 67.3524C132.907 71.4324 129.404 74.6138 125.027 76.9087C120.637 79.2037 115.687 80.3451 110.179 80.3451ZM114.751 67.3524C120.904 67.3524 125.853 65.0331 129.623 60.3946C133.381 55.756 135.266 49.8182 135.266 42.5933C135.266 37.6997 134.39 33.3769 132.651 29.6005C130.912 25.8363 128.492 22.8977 125.428 20.8091C122.351 18.7206 118.752 17.6763 114.617 17.6763C110.483 17.6763 106.834 18.7449 103.673 20.882C100.511 23.0191 98.0301 25.9577 96.2425 29.6734C94.4549 33.3891 93.555 37.6512 93.555 42.4354C93.555 47.2197 94.4549 51.6275 96.2425 55.3553C98.0301 59.071 100.535 62.0096 103.746 64.1467C106.956 66.2838 110.628 67.3524 114.763 67.3524H114.751ZM133.673 78.8152C132.627 78.8152 131.812 77.8923 131.958 76.848L134.378 59.241L136.98 41.5126L135.935 32.3569C135.935 32.3569 135.837 22.5456 135.12 13.3899C134.816 9.51637 137.892 6.21354 141.784 6.21354H141.954C145.566 6.21354 148.557 8.94566 148.849 12.5035C150.673 34.8219 151.135 53.0968 142.696 77.6373C142.453 78.3295 141.796 78.8152 141.054 78.8152H133.673Z" fill="var(--fill-0, #262626)"/>
<path d="M97.3734 74.8566C67.3976 65.0574 54.2156 33.6319 34.6857 12.0177C29.0554 5.7885 22.0023 -0.0400268 13.0399 2.6921C10.5714 3.44495 -1.69864 10.8885 0.198403 31.4947C1.64551 47.2803 9.34314 63.9159 17.1502 77.7223C17.5515 78.4265 18.3055 78.8637 19.1202 78.8637H26.2949C27.7177 78.8637 28.7879 77.5766 28.5082 76.1801C26.6841 67.0973 22.2941 51.2875 27.6934 45.6289C31.4632 41.6825 36.3517 44.2204 40.1337 46.6003C49.2784 52.356 57.6205 62.0581 66.8382 68.5059C81.6863 78.8758 101.873 83.3079 117 78.3537C117.84 78.0744 118.423 77.3094 118.508 76.4351C118.666 74.808 117.098 73.5452 115.541 74.0794C109.704 76.0951 103.259 76.763 97.3612 74.8444L97.3734 74.8566Z" fill="var(--fill-0, #262626)"/>
<path d="M213.543 6.66282C209.165 6.66282 205.724 10.3785 206.04 14.7499C208.46 47.7175 192.749 74.4316 172.088 88.3472C166.713 91.9658 158.468 95.3293 150.807 96.1429C149.214 96.3129 148.229 97.9643 148.813 99.4579C149.214 100.466 150.211 101.085 151.293 101C167.795 99.7979 190.535 89.7194 202.453 76.0102C219.952 55.8653 224.099 34.664 220.998 13.1228C220.463 9.41923 217.276 6.67497 213.543 6.67497V6.66282Z" fill="var(--fill-0, #262626)"/>
<path d="M206.113 27.0627C205.773 35.0769 201.966 39.6183 198.245 41.4154C194.524 43.2004 190.207 44.099 185.306 44.099C180.406 44.099 176.247 43.2004 172.526 41.4154C168.805 39.6304 165.862 37.1533 163.721 33.9962C161.581 30.8391 160.511 27.1962 160.511 23.0677C160.511 21.0763 161.241 18.4899 161.995 16.3528C162.87 13.8878 161.934 11.1435 159.757 9.68637C157.045 7.8771 153.324 8.65424 151.658 11.4592C151.403 11.8842 151.16 12.3092 150.929 12.7464C148.63 17.0813 147.487 21.9991 147.487 27.4998C147.487 34.2269 149.165 42.1804 152.534 47.5232C155.902 52.8661 160.438 57.1039 166.154 60.2124C171.869 63.321 178.302 64.8753 185.44 64.8753C192.578 64.8753 199.011 63.321 204.727 60.2124C210.442 57.1039 214.954 52.0525 218.274 46.7097C221.594 41.3547 206.259 23.2134 206.101 27.0748L206.113 27.0627Z" fill="var(--fill-0, #262626)"/>
<path d="M256.263 80.3451C249.526 80.3451 242.388 78.6937 237.025 75.3788C231.662 72.0638 226.616 67.5588 223.503 61.8517C220.39 56.1446 218.833 49.7211 218.833 42.5933C218.833 35.4655 220.39 29.0419 223.503 23.3348C226.616 17.6277 230.848 13.0985 236.21 9.73494C241.573 6.3714 249.538 4.69569 256.263 4.69569C261.772 4.69569 266.697 5.83712 271.038 8.1321C275.38 10.4271 278.87 13.5842 281.521 17.6035C284.172 21.6349 285.655 26.2977 285.959 31.5919V53.4489C285.655 58.646 284.196 63.2846 281.594 67.3524C278.991 71.4323 275.489 74.6138 271.111 76.9087C266.721 79.2037 261.772 80.3451 256.263 80.3451ZM260.836 67.3524C266.989 67.3524 271.938 65.0331 275.708 60.3946C279.466 55.756 281.35 49.8182 281.35 42.5933C281.35 37.6997 280.475 33.3769 278.736 29.6005C276.997 25.8363 274.577 22.8977 271.513 20.8091C268.436 18.7206 264.836 17.6763 260.702 17.6763C256.567 17.6763 252.919 18.7449 249.757 20.882C246.596 23.0191 244.115 25.9577 242.327 29.6734C240.54 33.3891 239.64 37.6512 239.64 42.4354C239.64 47.2197 240.54 51.6275 242.327 55.3553C244.115 59.071 246.62 62.0096 249.83 64.1467C253.041 66.2838 256.713 67.3524 260.848 67.3524H260.836ZM279.733 78.8152C278.687 78.8152 277.885 77.8923 278.031 76.8602L280.451 59.2532L283.053 41.5247L282.007 32.3691C282.007 32.3691 281.91 22.5577 281.192 13.4021C280.888 9.52852 283.965 6.22568 287.856 6.22568H288.027C291.638 6.22568 294.63 8.95781 294.922 12.5156C296.746 34.834 297.208 53.1211 288.768 77.6495C288.525 78.3416 287.868 78.8152 287.127 78.8152H279.733Z" fill="var(--fill-0, #262626)"/>
</g>
</g>
</svg>
