<svg width="361" height="137" viewBox="0 0 361 137" fill="none" xmlns="http://www.w3.org/2000/svg">
<path d="M0.790631 67.6201L21.347 9.6405H33.4701L54.0265 67.6201H45.3295L39.883 51.4561H14.8463C13.0893 56.5513 11.3324 61.91 9.39973 67.6201H0.790631ZM17.5696 43.8133H37.3354L33.8214 33.7108C31.8009 27.825 29.7804 22.027 27.7599 16.6683H27.0572C24.861 22.7298 22.7526 28.4399 20.6443 34.6771L17.5696 43.8133ZM69.2262 69.0257C63.5161 69.0257 57.2789 66.2146 57.2789 58.2204C57.2789 50.4898 63.0769 46.9759 69.4019 45.0432C75.1999 43.2862 84.0725 41.8807 84.0725 35.2921C84.0725 31.1632 80.7343 28.7035 75.9905 28.7035C70.5439 28.7035 64.9217 31.9539 60.9685 35.5556V27.9129C64.4824 24.926 70.4561 22.2027 77.6596 22.2027C87.235 22.2027 91.9788 27.1222 92.0667 36.6098C92.0667 44.1647 92.0667 48.9085 92.5059 54.0915C92.9451 60.5044 93.7358 63.7548 94.9656 67.6201H87.1472C86.5323 66.1267 85.8295 63.7548 85.4781 59.011H84.951C81.9642 65.951 75.112 69.0257 69.2262 69.0257ZM64.9217 57.3419C64.9217 61.3829 68.0842 62.7885 71.071 62.7885C77.3082 62.7885 84.1604 56.9027 84.1604 47.3272V44.5161C81.5249 47.9422 75.6391 48.8207 71.9495 49.9627C67.9963 51.2804 64.9217 53.3009 64.9217 57.3419Z" fill="#181818"/>
<path d="M27.5015 98.582V89.8851H29.254C29.7548 91.2687 30.2423 92.5996 30.7299 93.9832C31.0593 94.9056 31.3624 95.8544 31.6786 96.8954H31.7445C32.0608 95.8807 32.3507 94.9583 32.6669 94.0491C33.1808 92.6259 33.6816 91.295 34.1823 89.8851H35.9217V98.582H34.3668C34.3668 96.7768 34.3141 94.9056 34.5381 92.7314H34.4722C33.7606 94.9451 33.0886 96.724 32.4429 98.582H30.9802C30.3346 96.724 29.6625 94.9451 28.9641 92.7314H28.8851C29.1091 94.8924 29.0564 96.7768 29.0564 98.582H27.5015ZM39.0455 98.7929C38.1363 98.7929 37.2271 98.3185 37.2271 97.1589C37.2271 95.9993 38.1363 95.4722 39.0587 95.2087C39.8888 94.9583 41.1802 94.7343 41.1802 93.8382C41.1802 93.2716 40.7058 92.929 40.0206 92.929C39.23 92.929 38.3866 93.3902 37.7805 93.9041V92.5996C38.3603 92.1516 39.2959 91.7694 40.3632 91.7694C41.8522 91.7694 42.6297 92.5205 42.6297 94.0095C42.6429 95.156 42.6429 95.8412 42.6956 96.5659C42.7746 97.4751 42.8932 97.9891 43.0645 98.582H41.6678C41.5755 98.358 41.4701 98.0154 41.4174 97.3434H41.3383C40.8903 98.358 39.9152 98.7929 39.0455 98.7929ZM38.6238 96.9876C38.6238 97.5279 39.0455 97.7255 39.4672 97.7255C40.3105 97.7255 41.2066 96.9217 41.2066 95.604V95.2218C40.8376 95.6831 40.047 95.8148 39.5594 95.9861C39.0323 96.1706 38.6238 96.4605 38.6238 96.9876ZM46.3052 98.7929C45.475 98.7929 44.5922 98.6216 43.9992 98.1867V96.9349C44.7503 97.4356 45.5146 97.686 46.2525 97.686C46.9377 97.686 47.6097 97.462 47.6097 96.8426C47.6097 96.3551 47.1881 96.1443 46.7137 95.9598C46.2261 95.7489 45.8177 95.5776 45.5278 95.4459C44.7767 95.0901 44.0387 94.5366 44.0387 93.6142C44.0387 92.6655 44.7767 91.7694 46.5292 91.7694C47.3067 91.7694 48.0841 91.9539 48.6903 92.3888V93.6011C48.15 93.153 47.3462 92.85 46.6215 92.85C45.989 92.85 45.5146 93.1135 45.5146 93.5483C45.5146 93.9305 45.9362 94.2336 46.6083 94.5235L47.7415 95.0374C48.374 95.3273 49.0988 95.6831 49.0988 96.7504C49.0988 97.91 48.2027 98.7929 46.3052 98.7929ZM52.2375 98.7929C51.4074 98.7929 50.5245 98.6216 49.9315 98.1867V96.9349C50.6826 97.4356 51.4469 97.686 52.1848 97.686C52.87 97.686 53.5421 97.462 53.5421 96.8426C53.5421 96.3551 53.1204 96.1443 52.646 95.9598C52.1585 95.7489 51.75 95.5776 51.4601 95.4459C50.709 95.0901 49.971 94.5366 49.971 93.6142C49.971 92.6655 50.709 91.7694 52.4615 91.7694C53.239 91.7694 54.0164 91.9539 54.6226 92.3888V93.6011C54.0823 93.153 53.2785 92.85 52.5538 92.85C51.9213 92.85 51.4469 93.1135 51.4469 93.5483C51.4469 93.9305 51.8686 94.2336 52.5406 94.5235L53.6738 95.0374C54.3063 95.3273 55.0311 95.6831 55.0311 96.7504C55.0311 97.91 54.135 98.7929 52.2375 98.7929ZM56.2328 91.9803C56.4436 92.0066 56.6808 92.033 56.9707 92.033C57.2079 92.033 57.4583 92.0066 57.7086 91.9803V98.582H56.2328V91.9803ZM56.1142 90.6098C56.1142 90.1882 56.325 89.8983 56.9707 89.8983C57.5637 89.8983 57.8404 90.1355 57.8404 90.6098C57.8404 91.0579 57.59 91.3082 56.9707 91.3082C56.4173 91.3082 56.1142 91.1106 56.1142 90.6098ZM60.8742 98.582H59.3984V89.6215H60.8742V98.582ZM62.564 91.9803C62.7748 92.0066 63.012 92.033 63.3019 92.033C63.5391 92.033 63.7895 92.0066 64.0398 91.9803V98.582H62.564V91.9803ZM62.4454 90.6098C62.4454 90.1882 62.6562 89.8983 63.3019 89.8983C63.8949 89.8983 64.1716 90.1355 64.1716 90.6098C64.1716 91.0579 63.9213 91.3082 63.3019 91.3082C62.7485 91.3082 62.4454 91.1106 62.4454 90.6098ZM67.0342 98.7929C66.1249 98.7929 65.2157 98.3185 65.2157 97.1589C65.2157 95.9993 66.1249 95.4722 67.0473 95.2087C67.8775 94.9583 69.1689 94.7343 69.1689 93.8382C69.1689 93.2716 68.6945 92.929 68.0093 92.929C67.2186 92.929 66.3753 93.3902 65.7691 93.9041V92.5996C66.3489 92.1516 67.2845 91.7694 68.3519 91.7694C69.8409 91.7694 70.6184 92.5205 70.6184 94.0095C70.6315 95.156 70.6315 95.8412 70.6842 96.5659C70.7633 97.4751 70.8819 97.9891 71.0532 98.582H69.6564C69.5642 98.358 69.4588 98.0154 69.4061 97.3434H69.327C68.879 98.358 67.9039 98.7929 67.0342 98.7929ZM66.6125 96.9876C66.6125 97.5279 67.0342 97.7255 67.4558 97.7255C68.2992 97.7255 69.1952 96.9217 69.1952 95.604V95.2218C68.8263 95.6831 68.0356 95.8148 67.5481 95.9861C67.021 96.1706 66.6125 96.4605 66.6125 96.9876Z" fill="#181818"/>
<path d="M0.711568 126.544V120.746H1.56369V125.745H4.35726V126.544H0.711568ZM5.11865 122.152C5.22407 122.152 5.35584 122.161 5.51397 122.161C5.65452 122.161 5.7863 122.161 5.91807 122.152V126.544H5.11865V122.152ZM5.01323 121.221C5.01323 120.957 5.14501 120.79 5.52275 120.79C5.85657 120.79 6.04105 120.922 6.04105 121.221C6.04105 121.475 5.89171 121.642 5.52275 121.642C5.2065 121.642 5.01323 121.528 5.01323 121.221ZM8.88307 128.187C8.19786 128.187 7.67077 128.02 7.20518 127.809V127.08C7.72348 127.326 8.15393 127.537 8.84793 127.537C9.79669 127.537 10.2886 127.045 10.2886 126.008V125.736H10.2535C9.97239 126.246 9.37502 126.65 8.64588 126.65C7.68834 126.65 6.86257 126.017 6.86257 124.401C6.86257 122.907 7.58292 122.002 8.72494 122.002C9.32231 122.002 9.8494 122.248 10.2447 122.863H10.2799V122.152H11.0441V125.912C11.0441 126.676 10.9387 128.187 8.88307 128.187ZM7.66199 124.383C7.66199 125.007 7.82011 125.991 8.89186 125.991C9.84061 125.991 10.2271 125.209 10.2271 124.304C10.2271 123.171 9.61221 122.644 8.89186 122.644C7.99581 122.644 7.66199 123.487 7.66199 124.383ZM12.2306 126.544V120.571H13.03V122.916H13.0739C13.3901 122.371 13.8645 122.002 14.5761 122.002C15.4194 122.002 15.9817 122.503 15.9817 123.777V126.544H15.1822V124.058C15.1822 123.259 14.9275 122.714 14.2598 122.714C13.7767 122.714 13.03 123.03 13.03 124.339V126.544H12.2306ZM18.579 126.685C17.3491 126.685 17.3491 125.639 17.3491 124.682V122.802H16.5936V122.521C17.1471 122.231 17.5248 121.792 17.7708 121.036H18.1573V122.152H19.4311V122.802H18.1486V124.603C18.1486 125.455 18.1486 126.043 18.7635 126.043C18.9743 126.043 19.1852 125.973 19.3872 125.833V126.509C19.2642 126.579 18.9655 126.685 18.579 126.685Z" fill="#181818"/>
<path d="M35.1676 126.544V120.746H37.5571C38.7694 120.746 39.5864 121.247 39.5864 122.538C39.5864 123.399 39.2086 124.023 38.2599 124.181L39.6479 126.544H38.5234L37.1794 124.26H36.2042V126.544H35.1676ZM36.2042 123.557H37.3199C38.0842 123.557 38.5761 123.294 38.5761 122.582C38.5761 122.02 38.2775 121.616 37.4956 121.616H36.2042V123.557ZM42.4617 126.685C41.1001 126.685 40.1777 126.035 40.1777 124.313C40.1777 122.942 40.7838 122.002 42.2509 122.002C43.4544 122.002 44.2274 122.653 44.2274 124.058V124.612H41.1528C41.1528 125.411 41.6008 125.938 42.611 125.938C43.103 125.938 43.5334 125.815 44.1132 125.481V126.263C43.7179 126.518 43.1733 126.685 42.4617 126.685ZM41.1528 123.935H43.3402C43.3402 123.224 43.0503 122.732 42.286 122.732C41.6359 122.732 41.1528 123.083 41.1528 123.935ZM46.8651 128.187C46.1974 128.187 45.6703 128.038 45.2223 127.844V127.019C45.7055 127.247 46.1359 127.449 46.8387 127.449C47.7172 127.449 48.2355 126.983 48.2355 126.026V125.789H48.2004C47.8929 126.272 47.3219 126.65 46.6191 126.65C45.6528 126.65 44.8621 126.017 44.8621 124.392C44.8621 122.907 45.5386 122.002 46.6894 122.002C47.278 122.002 47.7963 122.24 48.1828 122.828H48.2267V122.152H49.1579V125.877C49.1579 126.764 48.9295 128.187 46.8651 128.187ZM45.8285 124.383C45.8285 124.998 45.9954 125.885 46.9529 125.885C47.8138 125.885 48.174 125.191 48.174 124.313C48.174 123.259 47.6294 122.758 46.9617 122.758C46.1447 122.758 45.8285 123.505 45.8285 124.383ZM51.5466 126.685C50.3695 126.685 50.2201 125.631 50.2201 125.042V122.152H51.204V124.717C51.204 125.103 51.2391 125.92 51.9595 125.92C52.5481 125.92 52.9258 125.376 53.0752 124.91V122.152H54.0591V126.544H53.1103V125.754H53.0752C52.7941 126.281 52.2933 126.685 51.5466 126.685ZM56.1636 126.544H55.1797V120.571H56.1636V126.544ZM58.1598 126.685C57.5537 126.685 56.9475 126.368 56.9475 125.595C56.9475 124.822 57.5537 124.471 58.1686 124.295C58.7221 124.128 59.583 123.979 59.583 123.382C59.583 123.004 59.2667 122.776 58.8099 122.776C58.2828 122.776 57.7206 123.083 57.3165 123.426V122.556C57.703 122.257 58.3268 122.002 59.0383 122.002C60.031 122.002 60.5493 122.503 60.5493 123.496C60.5581 124.26 60.5581 124.717 60.5932 125.2C60.6459 125.806 60.725 126.149 60.8392 126.544H59.908C59.8465 126.395 59.7762 126.166 59.7411 125.718H59.6884C59.3897 126.395 58.7396 126.685 58.1598 126.685ZM57.8787 125.481C57.8787 125.841 58.1598 125.973 58.441 125.973C59.0032 125.973 59.6005 125.437 59.6005 124.559V124.304C59.3546 124.612 58.8275 124.699 58.5025 124.814C58.1511 124.937 57.8787 125.13 57.8787 125.481ZM61.7083 126.544V122.152H62.6483V123.03H62.6922C62.8415 122.398 63.2193 122.002 63.8342 122.002C64.0538 122.002 64.2734 122.055 64.4843 122.196V123.162C64.2383 123.013 64.0099 122.916 63.7727 122.916C63.1314 122.916 62.6922 123.584 62.6922 124.664V126.544H61.7083Z" fill="#181818"/>
<path d="M80.5974 126.544V120.746H83.2855C84.41 120.746 85.1655 121.168 85.1655 122.248C85.1655 122.863 84.9107 123.338 84.2518 123.575V123.619C84.9458 123.715 85.4114 124.111 85.4114 124.963C85.4114 125.912 84.8404 126.544 83.3734 126.544H80.5974ZM81.9678 125.595H83.0571C83.6633 125.595 84.0586 125.385 84.0586 124.849C84.0586 124.251 83.5578 124.137 83.1274 124.137H81.9678V125.595ZM81.9678 123.259H82.9166C83.5051 123.259 83.9004 123.057 83.9004 122.521C83.9004 122.099 83.6633 121.792 83.0659 121.792H81.9678V123.259ZM88.1827 126.685C86.8386 126.685 85.9426 126 85.9426 124.348C85.9426 122.978 86.5663 122.002 88.1827 122.002C89.5268 122.002 90.4228 122.696 90.4228 124.348C90.4228 125.718 89.7991 126.685 88.1827 126.685ZM87.2339 124.348C87.2339 125.139 87.4887 125.727 88.1827 125.727C88.7537 125.727 89.1314 125.306 89.1314 124.348C89.1314 123.557 88.8767 122.969 88.1827 122.969C87.6029 122.969 87.2339 123.39 87.2339 124.348ZM92.4816 126.544H91.1639V120.571H92.4816V126.544ZM94.9481 126.685C93.9027 126.685 93.2263 125.92 93.2263 124.357C93.2263 122.916 93.8324 122.002 95.0271 122.002C95.5894 122.002 96.0462 122.248 96.3888 122.758H96.4327V120.571H97.7504V126.544H96.5118V125.877H96.4678C96.0989 126.395 95.5279 126.685 94.9481 126.685ZM94.5176 124.348C94.5176 125.051 94.7109 125.727 95.44 125.727C96.0286 125.727 96.4239 125.262 96.4239 124.357C96.4239 123.522 96.0725 122.969 95.4488 122.969C94.9217 122.969 94.5176 123.364 94.5176 124.348Z" fill="#181818"/>
<path d="M135.737 18.5886L139.591 7.71744H141.864L145.718 18.5886H144.088L143.067 15.5579H138.372C138.043 16.5132 137.713 17.518 137.351 18.5886H135.737ZM138.883 14.1249H142.589L141.93 12.2306C141.551 11.127 141.172 10.0399 140.793 9.03516H140.662C140.25 10.1717 139.855 11.2423 139.459 12.4118L138.883 14.1249Z" fill="#181818"/>
<path d="M154.508 18.5886V7.71744H158.873C160.932 7.71744 162.299 8.50807 162.299 10.5341C162.299 11.6871 161.871 12.5436 160.718 12.9883V13.0707C161.937 13.2519 162.744 13.9601 162.744 15.5249C162.744 17.3697 161.657 18.5886 158.89 18.5886H154.508ZM156.106 17.2709H159.038C160.323 17.2709 161.179 16.7603 161.179 15.5249C161.179 13.8778 159.631 13.8284 158.956 13.8284H156.106V17.2709ZM156.106 12.5436H158.676C159.894 12.5436 160.734 12.0659 160.734 10.8141C160.734 9.80932 160.207 9.06811 158.89 9.06811H156.106V12.5436Z" fill="#181818"/>
<path d="M176.469 18.8522C173.735 18.8522 171.775 17.2709 171.775 13.153C171.775 9.72696 173.142 7.4539 176.502 7.4539C177.754 7.4539 178.989 7.76686 179.994 8.55749V10.1223C178.94 9.31518 177.82 8.88692 176.634 8.88692C174.74 8.88692 173.422 10.0729 173.422 13.1201C173.422 15.7061 174.361 17.4191 176.733 17.4191C177.803 17.4191 178.973 17.1062 180.126 16.1673V17.6662C179.401 18.2921 178.1 18.8522 176.469 18.8522Z" fill="#181818"/>
<path d="M189.462 18.5886V7.71744H193.251C195.936 7.71744 198.011 9.23282 198.011 13.153C198.011 16.4144 196.446 18.5886 192.707 18.5886H189.462ZM191.06 17.1556H192.839C194.783 17.1556 196.348 16.0355 196.348 13.1695C196.348 10.7647 195.195 9.15046 192.954 9.15046H191.06V17.1556Z" fill="#181818"/>
<path d="M207.796 18.5886V7.71744H214.681V9.15046H209.394V12.3459H214.385V13.746H209.394V17.1556H214.797V18.5886H207.796Z" fill="#181818"/>
<path d="M225.559 18.5886V7.71744H232.444V9.21635H227.156V12.4942H231.686V13.9272H227.156V18.5886H225.559Z" fill="#181818"/>
<path d="M246.622 18.8522C243.657 18.8522 241.763 17.1227 241.763 13.1695C241.763 9.64461 243.295 7.4539 246.54 7.4539C247.874 7.4539 249.109 7.83274 250.032 8.55749V10.1223C249.093 9.44695 248.006 8.88692 246.655 8.88692C244.712 8.88692 243.41 10.0564 243.41 13.1366C243.41 15.8708 244.432 17.485 246.787 17.485C247.709 17.485 248.549 17.2215 248.879 16.7109V13.1695H250.46V17.3697C249.785 18.2263 248.385 18.8522 246.622 18.8522Z" fill="#181818"/>
<path d="M266.268 18.5886V13.9272H261.162V18.5886H259.564V7.71744H261.162V12.4448H266.268V7.71744H267.865V18.5886H266.268Z" fill="#181818"/>
<path d="M280.495 18.5886V7.71744H282.093V18.5886H280.495Z" fill="#181818"/>
<path d="M297.999 18.8522C297.076 18.8522 296.384 18.6051 296.022 18.4569V16.9744C296.269 17.0732 296.912 17.4521 297.735 17.4521C299.135 17.4521 299.152 16.3156 299.152 13.8613V7.71744H300.749V15.0473C300.749 16.7768 300.733 18.8522 297.999 18.8522Z" fill="#181818"/>
<path d="M316.31 13.1036L320.972 18.5886H319.077L314.877 13.8119H314.811V18.5886H313.214V7.71744H314.811V12.5436H314.877L318.88 7.71744H320.758L316.31 13.1036Z" fill="#181818"/>
<path d="M331.097 18.5886V7.71744H332.695V17.0897H337.933V18.5886H331.097Z" fill="#181818"/>
<path d="M346.447 18.5886V7.71744H348.226C348.851 9.46342 349.494 11.1765 350.169 13.0213C350.614 14.2566 351.059 15.5743 351.52 17.0074H351.602C352.063 15.6238 352.492 14.3225 352.936 13.1201C353.612 11.2259 354.271 9.49636 354.913 7.71744H356.692V18.5886H355.078C355.078 16.332 355.012 13.5978 355.292 10.7976H355.209C354.254 13.7295 353.315 16.1344 352.442 18.5886H350.68C349.807 16.1344 348.901 13.7295 347.946 10.7976H347.847C348.11 13.5813 348.044 16.332 348.044 18.5886H346.447Z" fill="#181818"/>
<path d="M136.327 36.1584V25.2873H138.156C139.457 27.2968 141.285 30.2122 143.575 34.0666H143.674C143.624 31.6617 143.542 28.8286 143.542 25.2873H145.14V36.1584H143.295C142.142 34.396 140.281 31.3817 137.859 27.3791H137.777C137.843 29.504 137.925 32.3041 137.925 36.1584H136.327Z" fill="#181818"/>
<path d="M154.693 36.1584V25.2873H159.19C161.331 25.2873 162.748 26.2097 162.748 28.5486C162.748 30.7887 161.348 31.9582 158.515 31.9582H156.291V36.1584H154.693ZM156.291 30.6405H158.762C160.195 30.6405 161.15 30.0805 161.15 28.6475C161.15 27.4615 160.557 26.6709 159.042 26.6709H156.291V30.6405Z" fill="#181818"/>
<path d="M175.869 35.1207C177.797 35.1207 179.065 33.9019 179.065 30.7393C179.065 28.0874 178.175 26.325 175.869 26.325C173.909 26.325 172.657 27.5603 172.657 30.7393C172.657 33.3583 173.563 35.1207 175.869 35.1207ZM171.027 30.7229C171.027 27.2968 172.377 25.0237 175.853 25.0237C178.785 25.0237 180.729 26.6215 180.729 30.7229C180.729 33.7207 179.625 35.829 176.989 36.3067L177.813 37.9374H176.116L175.276 36.389C172.657 36.2079 171.027 34.5772 171.027 30.7229Z" fill="#181818"/>
<path d="M189.704 36.1584V25.2873H193.92C196.226 25.2873 197.758 26.2261 197.758 28.6475C197.758 30.2617 197.05 31.4311 195.255 31.6947L197.791 36.1584H196.045L193.591 31.8759H191.301V36.1584H189.704ZM191.301 30.6405H193.64C195.189 30.6405 196.161 30.0969 196.161 28.6639C196.161 27.5109 195.551 26.6709 193.953 26.6709H191.301V30.6405Z" fill="#181818"/>
<path d="M210.881 36.422C209.662 36.422 208.377 36.142 207.323 35.3513V33.8524C208.822 34.709 209.843 35.0219 210.914 35.0219C212.742 35.0219 213.335 34.2313 213.335 33.2759C213.335 32.4524 212.857 32.0076 211.639 31.5135C210.782 31.1676 210.156 30.937 209.596 30.657C208.196 29.9816 207.455 29.1251 207.455 27.7909C207.455 26.2426 208.69 25.0237 211.062 25.0237C212.05 25.0237 212.989 25.2214 214.109 25.8802V27.445C213.039 26.7862 212.314 26.3744 211.029 26.3744C209.563 26.3744 209.053 26.9344 209.053 27.6921C209.053 28.6145 209.761 29.1581 210.947 29.6687C211.408 29.8663 211.869 30.0146 212.512 30.2946C213.961 30.8876 214.867 31.4805 214.867 33.1277C214.867 34.9725 213.73 36.422 210.881 36.422Z" fill="#181818"/>
<path d="M227.776 36.1584V26.7862H224.433V25.2873H232.734V26.7862H229.374V36.1584H227.776Z" fill="#181818"/>
<path d="M246.144 36.422C243.623 36.422 241.943 35.2196 241.943 32.057V25.2873H243.541V31.9582C243.541 33.8854 244.282 35.0549 246.144 35.0549C247.708 35.0549 248.746 34.2478 248.746 31.9582V25.2873H250.36V32.057C250.36 34.7584 249.108 36.422 246.144 36.422Z" fill="#181818"/>
<path d="M262.578 36.1584L258.724 25.2873H260.338C261.853 29.5534 261.54 28.6969 262.463 31.3982C262.891 32.6665 263.286 33.7207 263.649 34.8572H263.78C264.143 33.7536 264.291 33.3418 264.901 31.5794C265.625 29.471 266.202 27.7909 267.075 25.2873H268.705L264.851 36.1584H262.578Z" fill="#181818"/>
<path d="M277.067 36.1584L274.794 25.2873H276.425C277.051 28.351 277.644 31.4476 278.237 34.5607H278.319C278.945 31.5135 279.67 28.4168 280.395 25.2873H282.174C282.882 28.3674 283.623 31.4641 284.249 34.5607H284.331C284.908 31.5135 285.501 28.4168 286.143 25.2873H287.774L285.501 36.1584H283.277C282.519 32.7653 281.894 30.1134 281.317 27.165H281.251C280.675 30.0805 280.049 32.7324 279.291 36.1584H277.067Z" fill="#181818"/>
<path d="M294.555 36.1584L297.767 30.6076L294.72 25.2873H296.383C297.19 26.7532 298.014 28.2027 298.854 29.6687H298.887C299.694 28.2027 300.501 26.7532 301.325 25.2873H302.988L299.941 30.6076L303.153 36.1584H301.506C300.616 34.709 299.76 33.0618 298.887 31.5794H298.854C297.882 33.1936 297.075 34.709 296.202 36.1584H294.555Z" fill="#181818"/>
<path d="M315.63 36.1584V32.7488L312.253 25.2873H313.9C314.411 26.4732 314.922 27.6592 315.416 28.7463C315.729 29.504 316.075 30.2617 316.388 31.0852H316.486C316.799 30.2617 317.129 29.504 317.458 28.7463C317.952 27.6427 318.447 26.4732 318.974 25.2873H320.604L317.228 32.7488V36.1584H315.63Z" fill="#181818"/>
<path d="M330.01 36.1584V34.4289L336.055 26.7532H330.158V25.2873H337.752V26.9674L331.707 34.6595H338.164V36.1584H330.01Z" fill="#181818"/>
<path d="M139.351 64.9723C138.281 64.9723 137.111 64.4452 137.111 62.9463C137.111 61.4968 138.198 60.8379 139.384 60.4756C140.471 60.1461 142.135 59.8826 142.135 58.6472C142.135 57.8731 141.509 57.4119 140.62 57.4119C139.598 57.4119 138.544 58.0213 137.803 58.6966V57.2636C138.462 56.7036 139.582 56.193 140.933 56.193C142.728 56.193 143.617 57.1154 143.634 58.8943C143.634 60.3109 143.634 61.2003 143.716 62.1721C143.799 63.3746 143.947 63.984 144.178 64.7087H142.712C142.596 64.4287 142.464 63.984 142.399 63.0945H142.3C141.74 64.3958 140.455 64.9723 139.351 64.9723ZM138.544 62.7816C138.544 63.5393 139.137 63.8028 139.697 63.8028C140.867 63.8028 142.152 62.6992 142.152 60.9038V60.3767C141.657 61.0191 140.554 61.1838 139.862 61.398C139.121 61.645 138.544 62.0239 138.544 62.7816Z" fill="#181818"/>
<path d="M158.931 64.9723C157.91 64.9723 156.691 64.5605 156.065 63.3746H155.999V64.7087H154.632V53.5081H156.131V57.8731H156.214C156.757 56.9342 157.778 56.193 159.145 56.193C161.056 56.193 162.473 57.6425 162.473 60.3767C162.473 62.8145 161.386 64.9723 158.931 64.9723ZM156.148 60.6568C156.148 62.5345 156.971 63.7863 158.503 63.7863C160.068 63.7863 160.957 62.518 160.957 60.5415C160.957 58.5978 160.084 57.3954 158.635 57.3954C157.301 57.3954 156.148 58.4166 156.148 60.6568Z" fill="#181818"/>
<path d="M176.489 64.9723C174.215 64.9723 172.535 63.7205 172.535 60.6238C172.535 57.9225 173.82 56.193 176.406 56.193C177.329 56.193 178.267 56.4236 179.14 57.033V58.4166C178.432 57.8566 177.51 57.4283 176.554 57.4283C175.154 57.4283 174.051 58.3178 174.051 60.5744C174.051 62.4686 174.825 63.7369 176.67 63.7369C177.543 63.7369 178.449 63.4075 179.305 62.7651V64.0993C178.663 64.6099 177.74 64.9723 176.489 64.9723Z" fill="#181818"/>
<path d="M192.555 64.9723C190.546 64.9723 189.261 63.3416 189.261 60.6403C189.261 57.8731 190.628 56.193 192.769 56.193C194.005 56.193 194.861 56.753 195.52 57.7248H195.586V53.5081H197.101V64.7087H195.734V63.2098H195.652C194.976 64.3958 193.725 64.9723 192.555 64.9723ZM190.776 60.5909C190.776 62.0239 191.188 63.7863 193.049 63.7863C194.565 63.7863 195.569 62.6004 195.569 60.6403C195.569 58.6966 194.565 57.3954 193.082 57.3954C191.83 57.3954 190.776 58.3013 190.776 60.5909Z" fill="#181818"/>
<path d="M211.456 64.9723C208.985 64.9723 207.305 63.7534 207.305 60.5085C207.305 57.9719 208.409 56.193 211.061 56.193C213.284 56.193 214.684 57.4283 214.684 59.9814V60.9862H208.787C208.787 62.6827 209.677 63.7699 211.67 63.7699C212.592 63.7699 213.35 63.5393 214.47 62.8475V64.1322C213.745 64.6429 212.757 64.9723 211.456 64.9723ZM208.787 59.8826H213.284C213.284 58.4002 212.691 57.3625 211.11 57.3625C209.776 57.3625 208.787 58.1201 208.787 59.8826Z" fill="#181818"/>
<path d="M229.954 53.2446C230.728 53.2446 231.453 53.4422 231.848 53.7223V55.04C231.502 54.8094 230.777 54.447 230.102 54.447C228.735 54.447 228.735 55.8141 228.735 56.2259V57.1319H231.189V58.3672H228.735V64.7087H227.236V58.3672H226.132V57.1319H227.236V56.2259C227.236 55.4682 227.252 53.2446 229.954 53.2446Z" fill="#181818"/>
<path d="M245.791 67.7889C244.506 67.7889 243.518 67.4759 242.645 67.0806V65.7135C243.616 66.1747 244.423 66.57 245.725 66.57C247.504 66.57 248.426 65.6476 248.426 63.704V63.1934H248.36C247.833 64.1487 246.713 64.9064 245.346 64.9064C243.55 64.9064 242.002 63.7205 242.002 60.6897C242.002 57.8895 243.353 56.193 245.494 56.193C246.614 56.193 247.602 56.6542 248.344 57.8072H248.41V56.473H249.843V63.5228C249.843 64.9558 249.645 67.7889 245.791 67.7889ZM243.501 60.6568C243.501 61.8262 243.798 63.671 245.807 63.671C247.586 63.671 248.311 62.2051 248.311 60.5085C248.311 58.3837 247.158 57.3954 245.807 57.3954C244.127 57.3954 243.501 58.9767 243.501 60.6568Z" fill="#181818"/>
<path d="M260.243 64.7087V53.5081H261.742V57.906H261.824C262.417 56.8848 263.307 56.193 264.641 56.193C266.222 56.193 267.276 57.1319 267.276 59.5202V64.7087H265.777V60.0473C265.777 58.5484 265.3 57.5272 264.048 57.5272C263.142 57.5272 261.742 58.1201 261.742 60.5744V64.7087H260.243Z" fill="#181818"/>
<path d="M280.539 56.473C280.737 56.473 280.984 56.4895 281.28 56.4895C281.544 56.4895 281.791 56.4895 282.038 56.473V64.7087H280.539V56.473ZM280.341 54.727C280.341 54.2329 280.588 53.9199 281.297 53.9199C281.923 53.9199 282.268 54.167 282.268 54.727C282.268 55.2047 281.988 55.5177 281.297 55.5177C280.704 55.5177 280.341 55.3035 280.341 54.727Z" fill="#181818"/>
<path d="M297.45 67.7889C296.906 67.7889 296.395 67.6407 295.918 67.4101V66.2406C296.115 66.3394 296.609 66.5041 297.054 66.5041C298.059 66.5041 298.108 65.5653 298.108 64.9064V56.473C298.355 56.473 298.603 56.4895 298.866 56.4895C299.113 56.4895 299.36 56.4895 299.607 56.473V64.7582C299.607 66.01 299.492 67.7889 297.45 67.7889ZM297.911 54.727C297.911 54.2329 298.158 53.9199 298.866 53.9199C299.492 53.9199 299.838 54.167 299.838 54.727C299.838 55.2047 299.558 55.5177 298.866 55.5177C298.273 55.5177 297.911 55.3035 297.911 54.727Z" fill="#181818"/>
<path d="M316.736 60.5085C317.906 61.8756 319.108 63.3416 320.212 64.7087H318.515C317.445 63.4734 316.423 62.2051 315.369 60.9697H315.287V64.7087H313.788V53.5081H315.287V60.0803H315.369C316.374 58.8778 317.346 57.6754 318.367 56.473H320.047C318.96 57.8072 317.857 59.1579 316.736 60.5085Z" fill="#181818"/>
<path d="M334.747 64.7087H333.248V53.5081H334.747V64.7087Z" fill="#181818"/>
<path d="M345.421 64.7087V56.473H346.919V57.906H346.985C347.578 56.8848 348.484 56.193 349.802 56.193C350.971 56.193 351.861 56.7036 352.24 57.9225H352.322C352.899 56.8848 353.805 56.193 355.139 56.193C356.736 56.193 357.791 57.1319 357.791 59.5202V64.7087H356.292V60.0473C356.292 58.5319 355.798 57.5272 354.595 57.5272C353.64 57.5272 352.454 58.1366 352.454 60.5744V64.7087H350.955V60.0473C350.955 58.5484 350.477 57.5272 349.226 57.5272C348.32 57.5272 346.919 58.1201 346.919 60.5744V64.7087H345.421Z" fill="#181818"/>
<path d="M137.256 82.2786V74.0428H138.755V75.4758H138.821C139.414 74.4546 140.319 73.7628 141.654 73.7628C143.235 73.7628 144.289 74.7017 144.289 77.09V82.2786H142.79V77.6171C142.79 76.1182 142.312 75.097 141.061 75.097C140.155 75.097 138.755 75.69 138.755 78.1442V82.2786H137.256Z" fill="#181818"/>
<path d="M154.632 85.0787V74.0428H156.049V75.4429H156.131C156.675 74.504 157.778 73.7628 159.145 73.7628C161.056 73.7628 162.473 75.2123 162.473 77.9466C162.473 80.3843 161.386 82.5421 158.931 82.5421C157.91 82.5421 156.741 82.1303 156.131 80.9444H156.049V85.0787H154.632ZM156.148 78.2266C156.148 80.1043 156.971 81.3562 158.503 81.3562C160.068 81.3562 160.957 80.0879 160.957 78.1113C160.957 76.1676 160.084 74.9652 158.635 74.9652C157.301 74.9652 156.148 75.9865 156.148 78.2266Z" fill="#181818"/>
<path d="M178.115 85.0787V80.8455H178.049C177.374 82.0644 175.99 82.5421 174.936 82.5421C172.893 82.5421 171.707 80.8126 171.707 78.2101C171.707 75.3441 173.173 73.7628 175.232 73.7628C176.336 73.7628 177.308 74.257 178.049 75.377H178.115V74.0428H179.548V85.0787H178.115ZM173.223 78.1936C173.223 79.7255 173.717 81.3562 175.463 81.3562C176.764 81.3562 178.016 80.4667 178.016 78.2266C178.016 76.3159 177.077 74.9652 175.529 74.9652C174.046 74.9652 173.223 76.2006 173.223 78.1936Z" fill="#181818"/>
<path d="M191.42 82.2786V74.0428H192.837V75.7064H192.919C193.232 74.504 193.973 73.7628 195.11 73.7628C195.555 73.7628 195.966 73.8781 196.362 74.1746V75.657C195.917 75.3441 195.472 75.1299 195.011 75.1299C193.792 75.1299 192.919 76.53 192.919 78.6384V82.2786H191.42Z" fill="#181818"/>
<path d="M210.805 82.5421C209.801 82.5421 208.73 82.328 207.972 81.7844V80.3843C208.928 81.0267 209.866 81.3397 210.789 81.3397C211.695 81.3397 212.667 81.0267 212.667 80.1537C212.667 79.4784 212.074 79.1984 211.481 78.9349C210.855 78.6713 210.344 78.4572 209.982 78.276C209.059 77.8313 208.055 77.1395 208.055 75.9865C208.055 74.8664 208.944 73.7628 211.019 73.7628C211.958 73.7628 212.914 73.9934 213.622 74.537V75.8712C212.963 75.3111 211.925 74.9323 211.019 74.9323C210.179 74.9323 209.553 75.2947 209.553 75.8876C209.553 76.3818 210.015 76.7771 210.871 77.1724C211.316 77.3701 211.514 77.4689 212.419 77.8807C213.26 78.2595 214.165 78.7207 214.165 80.022C214.165 81.4385 213.062 82.5421 210.805 82.5421Z" fill="#181818"/>
<path d="M229.576 82.5421C227.27 82.5421 227.27 80.582 227.27 78.7866V75.2617H225.853V74.7346C226.891 74.1911 227.599 73.3675 228.06 71.9509H228.785V74.0428H231.173V75.2617H228.768V78.6384C228.768 80.2361 228.768 81.3397 229.921 81.3397C230.317 81.3397 230.712 81.2079 231.091 80.9444V82.2127C230.86 82.3445 230.3 82.5421 229.576 82.5421Z" fill="#181818"/>
<path d="M245.118 82.5421C242.779 82.5421 242.647 80.3185 242.647 79.4125V74.0428H244.162V78.836C244.162 79.5608 244.195 81.3397 245.694 81.3397C246.913 81.3397 247.704 80.1702 248.049 79.3137V74.0428H249.548V82.2786H248.115V80.7467H248.049C247.506 81.7515 246.534 82.5421 245.118 82.5421Z" fill="#181818"/>
<path d="M262.661 82.2786L259.844 74.0428H261.359C261.788 75.2123 262.101 76.1676 262.677 77.8971C263.089 79.149 263.319 79.8243 263.665 81.0597H263.764C264.011 80.2032 264.439 78.8196 264.72 77.963C265.049 76.9418 265.593 75.2452 266.054 74.0428H267.569L264.769 82.2786H262.661Z" fill="#181818"/>
<path d="M277.649 82.2786L275.573 74.0428H277.105C277.682 76.2665 278.209 78.4901 278.785 80.895H278.884C279.296 78.6384 279.889 76.2665 280.416 74.0428H282.145C282.623 76.0688 283.134 77.963 283.694 80.895H283.809C284.353 78.4901 284.896 76.2665 285.456 74.0428H287.005L284.913 82.2786H282.771C282.327 80.0714 281.635 77.3042 281.338 75.6076H281.256C280.91 77.4689 280.251 80.1537 279.807 82.2786H277.649Z" fill="#181818"/>
<path d="M295.376 82.2786L297.88 78.2266L295.393 74.0428H296.958C297.551 75.0146 297.419 74.8829 298.835 77.2383C299.494 76.1841 300.12 75.097 300.779 74.0428H302.294L299.84 78.2101L302.344 82.2786H300.812C300.252 81.3562 299.544 80.2361 298.852 79.0502C298.193 80.1702 297.534 81.2409 296.908 82.2786H295.376Z" fill="#181818"/>
<path d="M314.323 85.3587C313.566 85.3587 312.758 85.1117 312.314 84.7987V83.481C312.66 83.7445 313.45 84.0904 314.159 84.0904C314.85 84.0904 315.41 83.7281 315.41 82.9045C315.41 82.328 315.13 81.5209 314.834 80.6644L312.561 74.0428H314.076C314.603 75.5747 315.081 76.9747 315.213 77.3865C315.641 78.6219 315.789 79.149 316.415 81.2738H316.514C316.909 79.8902 317.288 78.4407 317.65 77.3536C318.26 75.5088 318.589 74.5699 318.771 74.0428H320.286L317.782 81.3891C317.667 81.735 317.535 82.0809 317.338 82.5751C316.596 84.5516 315.723 85.3587 314.323 85.3587Z" fill="#181818"/>
<path d="M330.774 82.2786V80.8126L335.337 75.377H330.791V74.0428H337.132V75.3276L332.405 80.9444H337.297V82.2786H330.774Z" fill="#181818"/>
<path d="M140.327 101.984C139.949 102.346 139.438 102.741 138.614 103.17V101.588C139.224 101.308 139.85 100.798 140.772 99.9577H141.942V110.829H140.327V101.984Z" fill="#181818"/>
<path d="M154.754 109.33C157.966 107.6 159.861 105.789 159.861 103.45C159.861 101.704 158.889 101.078 157.67 101.078C156.5 101.078 155.644 101.72 154.59 102.626V101.111C155.38 100.32 156.649 99.6941 158.082 99.6941C159.679 99.6941 161.59 100.435 161.59 102.972C161.59 105.196 160.223 107.584 157.077 109.313V109.33H162.134V110.829H154.754V109.33Z" fill="#181818"/>
<path d="M175.66 111.092C174.145 111.092 173.223 110.714 172.103 110.137V108.655C172.992 109.165 173.914 109.709 175.43 109.709C176.995 109.709 178.098 109.149 178.098 107.732C178.098 106.579 177.324 105.789 175.199 105.789H173.947V104.57C175.018 103.516 176.122 102.478 177.291 101.424H172.251V99.9577H179.284V101.259C178.082 102.395 176.83 103.565 175.529 104.701H175.842C177.703 104.701 179.663 105.229 179.663 107.749C179.663 109.61 178.625 111.092 175.66 111.092Z" fill="#181818"/>
<path d="M194.475 110.829V108.375H189.369V106.727L193.684 99.9577H196.073V106.975H197.456V108.375H196.073V110.829H194.475ZM190.802 106.975H194.475V101.242L190.802 106.975Z" fill="#181818"/>
<path d="M210.739 111.092C209.388 111.092 208.285 110.714 207.247 110.137V108.655C208.12 109.149 209.108 109.709 210.509 109.709C211.925 109.709 213.144 109.165 213.144 107.732C213.144 105.887 211.069 105.822 209.866 105.822H208.137V99.9577H214.165V101.424H209.685V104.636H210.294C211.414 104.636 214.709 104.57 214.709 107.716C214.709 109.742 213.358 111.092 210.739 111.092Z" fill="#181818"/>
<path d="M228.82 111.092C226.464 111.092 224.669 109.379 224.669 105.459C224.669 101.457 226.596 99.6941 229.017 99.6941C229.989 99.6941 231.159 100.007 231.834 100.649V102.05C231.01 101.358 229.89 100.979 229.067 100.979C227.551 100.979 226.151 102.132 226.151 105.624H226.25C226.86 104.421 227.914 103.763 229.281 103.763C231.01 103.763 232.674 104.767 232.674 107.189C232.674 109.495 231.142 111.092 228.82 111.092ZM226.646 107.37C226.646 108.556 227.271 109.824 228.77 109.824C230.072 109.824 231.109 108.885 231.109 107.337C231.109 106.167 230.516 105.031 228.984 105.031C227.667 105.031 226.646 105.871 226.646 107.37Z" fill="#181818"/>
<path d="M243.88 110.829L247.915 101.457H242.71V99.9577H249.562V101.259L245.543 110.829H243.88Z" fill="#181818"/>
<path d="M263.785 111.092C261.544 111.092 259.831 110.055 259.831 108.078C259.831 106.645 260.77 105.69 261.923 105.41V105.327C261.017 104.998 260.111 104.059 260.111 102.692C260.111 100.995 261.495 99.6941 263.669 99.6941C265.531 99.6941 267.309 100.666 267.309 102.725C267.309 103.96 266.618 104.981 265.498 105.327V105.41C266.552 105.673 267.606 106.48 267.606 108.029C267.606 109.742 266.338 111.092 263.785 111.092ZM261.511 107.815C261.511 109.149 262.549 109.808 263.785 109.808C264.938 109.808 265.942 109.215 265.942 107.897C265.942 106.53 264.872 105.986 263.702 105.986C262.697 105.986 261.511 106.365 261.511 107.815ZM261.643 102.857C261.643 103.977 262.549 104.685 263.785 104.685C264.905 104.685 265.811 104.125 265.811 102.906C265.811 101.885 265.152 100.979 263.719 100.979C262.417 100.979 261.643 101.72 261.643 102.857Z" fill="#181818"/>
<path d="M280.714 111.092C279.66 111.092 278.458 110.779 277.782 110.137V108.737C278.606 109.429 279.742 109.808 280.665 109.808C282.23 109.808 283.745 108.688 283.745 105.443H283.646C283.053 106.711 282.015 107.353 280.632 107.353C278.886 107.353 277.222 106.349 277.222 103.746C277.222 101.292 278.77 99.6941 281.109 99.6941C283.432 99.6941 285.227 101.292 285.227 105.212C285.227 109.33 283.218 111.092 280.714 111.092ZM278.787 103.614C278.787 104.932 279.38 106.069 280.912 106.069C282.23 106.069 283.234 105.229 283.234 103.581C283.234 102.264 282.625 100.979 281.126 100.979C279.825 100.979 278.787 101.934 278.787 103.614Z" fill="#181818"/>
<path d="M298.85 111.092C296.33 111.092 294.65 109.495 294.65 105.393C294.65 101.967 295.836 99.6941 298.85 99.6941C301.37 99.6941 303.05 101.292 303.05 105.41C303.05 108.819 301.864 111.092 298.85 111.092ZM296.297 105.36C296.297 108.029 297.022 109.791 298.85 109.791C300.382 109.791 301.387 108.572 301.387 105.41C301.387 102.774 300.695 101.012 298.85 100.995C297.318 100.979 296.297 102.214 296.297 105.36Z" fill="#181818"/>
<path d="M140.754 117.544L140.128 120.723H142.369L143.011 117.544H144.329L143.686 120.723H145.811V121.942H143.456L142.962 124.363H145.251V125.582H142.715L142.154 128.399H140.837L141.397 125.582H139.157L138.597 128.399H137.262L137.822 125.582H135.648V124.363H138.07L138.564 121.942H136.225V120.723H138.794L139.437 117.544H140.754ZM139.404 124.363H141.644L142.138 121.942H139.881L139.404 124.363Z" fill="#181818"/>
<path d="M157.777 125.664C157.497 123.045 157.464 119.735 157.431 117.528H159.161C159.144 119.356 159.144 122.535 158.815 125.664H157.777ZM157.266 127.707C157.266 127.114 157.662 126.719 158.288 126.719C158.897 126.719 159.309 127.114 159.309 127.707C159.309 128.283 158.897 128.679 158.288 128.679C157.662 128.679 157.266 128.283 157.266 127.707Z" fill="#181818"/>
<path d="M173.926 130.112L176.512 117.264H177.813L175.244 130.112H173.926Z" fill="#181818"/>
<path d="M195.119 131.199C192.764 131.199 192.039 130.243 192.039 126.702C192.039 125.236 191.825 124.824 191.067 124.824V123.408C191.66 123.408 192.039 122.996 192.039 121.695C192.039 118.895 192.813 117.033 195.119 117.033H195.926V118.433H195.053C194.016 118.433 193.522 119.224 193.522 121.695C193.522 122.897 193.275 123.787 192.451 124.067V124.166C193.275 124.462 193.522 124.956 193.522 126.537C193.522 129.107 193.802 129.799 195.053 129.799H195.926V131.199H195.119Z" fill="#181818"/>
<path d="M209.275 131.199V117.033H213.59V118.483H210.856V129.749H213.689V131.199H209.275Z" fill="#181818"/>
<path d="M228.791 131.199C226.831 127.147 226.436 121.892 228.791 117.033H230.257C228.396 121.085 228.05 126.34 230.257 131.199H228.791Z" fill="#181818"/>
<path d="M244.845 130.211C244.993 129.058 245.207 127.855 245.471 126.735H247.085C246.904 127.377 246.525 128.481 245.85 130.211H244.845Z" fill="#181818"/>
<path d="M263.715 128.679C263.089 128.679 262.693 128.283 262.693 127.707C262.693 127.114 263.089 126.719 263.715 126.719C264.324 126.719 264.736 127.114 264.736 127.707C264.736 128.283 264.324 128.679 263.715 128.679Z" fill="#181818"/>
<path d="M280.275 125.648C280.275 122.881 282.943 122.14 282.943 120.081C282.943 118.961 282.202 118.483 281.065 118.483C280.027 118.483 279.154 118.878 278.166 119.932V118.549C279.072 117.626 280.126 117.264 281.296 117.264C282.992 117.264 284.392 118.005 284.392 119.916C284.392 122.634 281.51 123.227 281.51 125.648H280.275ZM279.912 127.707C279.912 127.114 280.307 126.719 280.933 126.719C281.543 126.719 281.955 127.114 281.955 127.707C281.955 128.283 281.543 128.679 280.933 128.679C280.307 128.679 279.912 128.283 279.912 127.707Z" fill="#181818"/>
<path d="M296.007 121.036C296.518 120.756 297.276 120.41 298.231 119.932C297.325 119.471 296.518 119.125 296.007 118.845L296.501 118.022C297.012 118.335 297.687 118.796 298.56 119.405C298.494 118.384 298.396 117.511 298.379 116.935H299.334C299.318 117.528 299.252 118.335 299.17 119.389C300.043 118.796 300.702 118.335 301.212 118.022L301.706 118.845C301.196 119.125 300.389 119.471 299.483 119.932C300.438 120.41 301.196 120.756 301.706 121.036L301.212 121.86C300.718 121.547 300.01 121.019 299.17 120.476C299.252 121.547 299.318 122.37 299.334 122.947H298.379C298.396 122.37 298.494 121.481 298.56 120.459C297.704 121.019 296.996 121.547 296.501 121.86L296.007 121.036Z" fill="#181818"/>
</svg>
