<svg width="36" height="24" viewBox="0 0 36 24" fill="none" xmlns="http://www.w3.org/2000/svg">
<g clip-path="url(#clip0_208_88489)">
<rect width="36" height="24" fill="#FF4E4E"/>
<mask id="mask0_208_88489" style="mask-type:luminance" maskUnits="userSpaceOnUse" x="-6" y="0" width="48" height="24">
<path d="M-6 0L-6 24L42 24L42 0L-6 0Z" fill="white"/>
</mask>
<g mask="url(#mask0_208_88489)">
<path d="M-6.00098 0.00012207L-6.00098 24.0001L41.999 24.0001L41.999 0.00012207L-6.00098 0.00012207Z" fill="#001E6D"/>
<path fill-rule="evenodd" clip-rule="evenodd" d="M12.6325 12.0001L-7.07422 2.14676L-4.92759 -2.14649L17.9991 9.31685L40.9258 -2.14649L43.0724 2.14676L23.3657 12.0001L43.0724 21.8535L40.9258 26.1468L17.9991 14.6834L-4.92759 26.1468L-7.07422 21.8535L12.6325 12.0001Z" fill="white"/>
<mask id="mask1_208_88489" style="mask-type:luminance" maskUnits="userSpaceOnUse" x="-7" y="0" width="49" height="25">
<path d="M17.999 12.0001L41.999 12.0001L41.999 24.0001L17.999 12.0001ZM17.999 12.0001L17.999 24.0001L-6.00098 24.0001L17.999 12.0001ZM17.999 12.0001L-6.00098 12.0001L-6.00098 0.00012207L17.999 12.0001ZM17.999 12.0001L17.999 0.00012207L41.999 0.00012207L17.999 12.0001Z" fill="white"/>
</mask>
<g mask="url(#mask1_208_88489)">
<path fill-rule="evenodd" clip-rule="evenodd" d="M14.4215 12.0001L-6.71631 1.4312L-5.28523 -1.43097L17.9992 10.2113L41.2837 -1.43097L42.7148 1.4312L21.5769 12.0001L42.7148 22.569L41.2837 25.4312L17.9992 13.789L-5.28523 25.4312L-6.71631 22.569L14.4215 12.0001Z" fill="#C8102E"/>
</g>
<path fill-rule="evenodd" clip-rule="evenodd" d="M13.999 8.00012L13.999 0.00012207L21.999 0.00012207L21.999 8.00012L41.999 8.00012L41.999 16.0001L21.999 16.0001L21.999 24.0001L13.999 24.0001L13.999 16.0001L-6.00098 16.0001L-6.00098 8.00012L13.999 8.00012Z" fill="white"/>
<path fill-rule="evenodd" clip-rule="evenodd" d="M15.599 9.60012L15.599 0.00012207L20.399 0.00012207L20.399 9.60012L41.999 9.60012V14.4001L20.399 14.4001L20.399 24.0001L15.599 24.0001L15.599 14.4001L-6.00098 14.4001L-6.00098 9.60012L15.599 9.60012Z" fill="#C8102E"/>
</g>
</g>
<defs>
<clipPath id="clip0_208_88489">
<rect width="36" height="24" fill="white"/>
</clipPath>
</defs>
</svg>
