<svg width="36" height="24" viewBox="0 0 36 24" fill="none" xmlns="http://www.w3.org/2000/svg">
<g clip-path="url(#clip0_208_88494)">
<rect width="36" height="24" fill="#FF4E4E"/>
<path d="M36 -1.09091L0 -1.09091L0 25.0909L36 25.0909L36 -1.09091Z" fill="#CB0028"/>
<path d="M16.3636 25.0909L9.81818 25.0909L9.81818 15.2727H0L0 8.72727L9.81818 8.72727L9.81818 -1.09091L16.3636 -1.09091V8.72727L36 8.72727V15.2727L16.3636 15.2727V25.0909Z" fill="white"/>
<path d="M14.7273 25.0909H11.4545L11.4545 13.6364L0 13.6364L0 10.3636L11.4545 10.3636L11.4545 -1.09091L14.7273 -1.09091L14.7273 10.3636L36 10.3636V13.6364L14.7273 13.6364L14.7273 25.0909Z" fill="#00205B"/>
</g>
<defs>
<clipPath id="clip0_208_88494">
<rect width="36" height="24" fill="white"/>
</clipPath>
</defs>
</svg>
